<svg width="27" height="23" viewBox="0 0 27 23" fill="none" xmlns="http://www.w3.org/2000/svg">
<path d="M16.676 22.489C16.1063 18.9179 15.5805 15.544 15.0219 12.0277L14.1236 12.7617C12.1234 14.5258 9.82318 15.9171 7.33202 16.8695C6.94031 17.0413 6.51211 17.1132 6.08578 17.0787C5.65945 17.0443 5.24832 16.9047 4.88923 16.6723C3.34469 15.6864 1.74539 14.7663 0.157028 13.8242C0.395005 13.4763 0.728267 13.2045 1.11686 13.0413C1.50545 12.8781 1.93287 12.8304 2.34787 12.9041C3.59941 13.0374 4.85752 13.0996 6.11612 13.0903C6.51128 13.0841 6.89449 12.9538 7.21153 12.7178C11.5932 8.99341 15.9749 5.25437 20.3566 1.50073C21.4951 0.498454 22.9699 -0.037461 24.4863 9.17113e-06C25.8446 9.17113e-06 26.4142 0.898254 25.8337 2.19085C25.5129 2.83889 25.0703 3.41907 24.5301 3.8997C23.2485 5.0718 21.9121 6.17818 20.5757 7.28455C20.4023 7.4121 20.2593 7.57649 20.157 7.7659C20.0547 7.95531 19.9957 8.16502 19.9841 8.37997C19.6993 12.0825 19.3488 15.785 19.064 19.4875C19.0615 19.8625 18.9674 20.2312 18.7898 20.5615C18.6123 20.8918 18.3566 21.1737 18.0452 21.3826C17.5699 21.7273 17.1128 22.0966 16.676 22.489V22.489Z" fill="#47585B"/>
<path d="M4.60434 6.92306C5.62308 6.04672 6.33511 4.90749 7.97825 5.15943C9.62139 5.41138 11.2645 5.42233 12.9953 5.54283L13.554 5.61951C12.3052 6.71493 11.1659 7.63508 10.0157 8.58809C9.95018 8.63572 9.87536 8.6691 9.79612 8.68608C9.71688 8.70306 9.63498 8.70327 9.55566 8.68668C8.02207 8.2047 6.48847 7.71176 4.96583 7.20786C4.85629 7.175 4.77961 7.06546 4.60434 6.92306Z" fill="#47585B"/>
</svg>
